<svg xmlns="http://www.w3.org/2000/svg" width="19.801" height="17.715" viewBox="0 0 19.801 17.715"><defs><style>.a{fill:#facd48;}</style></defs><g transform="translate(0 0)"><path class="a" d="M2.547,21.075A7.479,7.479,0,0,0,0,21.137a13.219,13.219,0,0,1,2.547-4.081c1.754-1.867,3.82-2.7,5.573-5.021.543,1.733.919,4.092-.8,5.956S2.776,20.281,2.547,21.075Z" transform="translate(11.225 -12.035)"/><path class="a" d="M49.724,18.168s5.845,1.919,7.618,4.238S58.553,26.163,59.785,27c.51.347,1.667-.084,2.609-.042a2.753,2.753,0,0,1,2.142.865,1.223,1.223,0,0,1,.238.807,1.234,1.234,0,0,1,.126,1.19s-.215-.439-.564-.416a4.641,4.641,0,0,1-.785.017c-.224-.028-.368-.271-.759-.242a1.032,1.032,0,0,0-.98.977c-.029.965.8,1.677.738,2.084a1.114,1.114,0,0,0,.1.753c.091.247,1.548-.566,1.9.052a1.583,1.583,0,0,0-.634.062.439.439,0,0,1,.313.407c-.2-.211-.587-.134-.721-.117.227.062.327.3.376.382a1.354,1.354,0,0,0-1.613.446,1.04,1.04,0,0,1-.071-.795.642.642,0,0,0-.469-.209c.094.315-.029.4-.042.563a1.019,1.019,0,0,0,.348.662c.174.1,1.056-.011,1.275.506a1.451,1.451,0,0,0-.721-.156.463.463,0,0,1,.282.439.963.963,0,0,0-.853-.25.55.55,0,0,1,.25.368,1.794,1.794,0,0,0-1.645-.2c.048-.447.58-.563.58-.563s.071-.69-.518-.783c-.347-.056-.961-1.306-1.259-1.381s-.375.263-.324.437a12.786,12.786,0,0,0,.684,1.129,4.733,4.733,0,0,1-2.734,1.023,4.243,4.243,0,0,1-2.8-.979l2.4-1.9a2.436,2.436,0,0,0,.857-2.225,2.4,2.4,0,0,1-2.044-1.118c-1.336-2.756-4.759-2.232-5.741-6.324A9.468,9.468,0,0,1,49.724,18.168ZM64.075,28.406a.235.235,0,1,0-.234-.237A.235.235,0,0,0,64.075,28.406Z" transform="translate(-49.477 -17.636)"/></g></svg>