<svg xmlns="http://www.w3.org/2000/svg" width="16" height="13.3" viewBox="0 0 16 13.3"><defs><style>.a{fill:#3b7cff;}</style></defs><path class="a" d="M15.693,3.081,14.007.39A.832.832,0,0,0,13.3,0H2.808a.832.832,0,0,0-.7.39L.419,3.081A2.318,2.318,0,0,0,1.946,6.624a2.7,2.7,0,0,0,.356.023,2.565,2.565,0,0,0,1.917-.86,2.567,2.567,0,0,0,3.834,0,2.567,2.567,0,0,0,3.834,0,2.574,2.574,0,0,0,1.917.86,2.671,2.671,0,0,0,.356-.023,2.315,2.315,0,0,0,1.533-3.543Zm-1.883,4.4a3.3,3.3,0,0,1-.766-.1V9.975H3.068V7.383a3.441,3.441,0,0,1-.766.1,3.5,3.5,0,0,1-.468-.031,3.267,3.267,0,0,1-.426-.094v5.112a.83.83,0,0,0,.831.831H13.877a.83.83,0,0,0,.831-.831V7.357a2.652,2.652,0,0,1-.426.094,3.613,3.613,0,0,1-.473.031Z" transform="translate(-0.056)"/></svg>