<svg xmlns="http://www.w3.org/2000/svg" width="16" height="16" viewBox="0 0 16 16"><defs><style>.a{fill:#facd48;}</style></defs><path class="a" d="M13.77.393,13.9,2.979A7.745,7.745,0,0,0,.384,6.557.375.375,0,0,0,.753,7H2.286a.375.375,0,0,0,.365-.289,5.5,5.5,0,0,1,9.906-1.779L9.386,4.779a.375.375,0,0,0-.393.375V6.636a.375.375,0,0,0,.375.375h6.257A.375.375,0,0,0,16,6.636V.375A.375.375,0,0,0,15.625,0h-1.48a.375.375,0,0,0-.374.393ZM7.995,13.5a5.488,5.488,0,0,1-4.562-2.431l3.181.152a.375.375,0,0,0,.393-.375V9.365a.375.375,0,0,0-.375-.375H.375A.375.375,0,0,0,0,9.365v6.26A.375.375,0,0,0,.375,16h1.48a.375.375,0,0,0,.375-.394l-.13-2.58A7.744,7.744,0,0,0,15.606,9.443.375.375,0,0,0,15.237,9H13.7a.375.375,0,0,0-.365.289A5.5,5.5,0,0,1,7.995,13.5Z"/></svg>