<svg xmlns="http://www.w3.org/2000/svg" width="16" height="11.2" viewBox="0 0 16 11.2"><defs><style>.a{fill:#777c78;}</style></defs><path class="a" d="M15.874,35.072a11.624,11.624,0,0,0-15.746,0,.4.4,0,0,0-.009.574l.856.849a.406.406,0,0,0,.56.01,9.592,9.592,0,0,1,12.931,0,.406.406,0,0,0,.56-.01l.856-.849a.4.4,0,0,0-.009-.574ZM8,40a1.6,1.6,0,1,0,1.6,1.6A1.6,1.6,0,0,0,8,40Zm5.067-2.09a7.675,7.675,0,0,0-10.134,0,.4.4,0,0,0-.014.579l.861.85a.408.408,0,0,0,.551.02,5.631,5.631,0,0,1,7.337,0,.408.408,0,0,0,.551-.02l.861-.85A.4.4,0,0,0,13.068,37.91Z" transform="translate(-0.001 -32)"/></svg>